PathFileType	4	(X/Y/Z)	pose2sim_0-881.trc
DataRate	CameraRate	NumFrames	NumMarkers	Units	OrigDataRate	OrigDataStartFrame	OrigNumFrames
50	50	6	22	m	50	551	882
Frame#	Time	Hip			RHip			RKnee			RAnkle			RBigToe			RSmallToe			RHeel			LHip			LKnee			LAnkle			LBigToe			LSmallToe			LHeel			Neck			Head			Nose			RShoulder			RElbow			RWrist			LShoulder			LElbow			LWrist			
		X1	Y1	Z1	X2	Y2	Z2	X3	Y3	Z3	X4	Y4	Z4	X5	Y5	Z5	X6	Y6	Z6	X7	Y7	Z7	X8	Y8	Z8	X9	Y9	Z9	X10	Y10	Z10	X11	Y11	Z11	X12	Y12	Z12	X13	Y13	Z13	X14	Y14	Z14	X15	Y15	Z15	X16	Y16	Z16	X17	Y17	Z17	X18	Y18	Z18	X19	Y19	Z19	X20	Y20	Z20	X21	Y21	Z21	X22	Y22	Z22	
551	11.02	0.13351770139921318	0.9765551457508486	-0.0410833672134333	0.03457966706003604	0.9597864452909918	-0.03299773658344294	0.013831286904724087	0.5186618587803142	-0.06477106466697408	0.0012472619084491826	0.09177964631421508	-0.09236571788964988	0.011779373579579873	0.03738804823351421	0.08377901437027833	-0.04273223100400495	0.03924634056500022	0.04777974026488307	0.008756300732950764	0.0480386643729061	-0.13422693564164562	0.23688734257433586	0.9548134671459082	-0.05439113146111838	0.24076027972367056	0.5200477006574316	-0.09981263421274804	0.2440997208641326	0.08656129854540635	-0.11158143723672478	0.2706261820626178	0.036405900231935136	0.0743259471149874	0.3107417524267698	0.03561490900916022	0.01854607135244295	0.23334606253602955	0.04241323330481909	-0.14607392527643956	0.14896560376637133	1.5787956583115854	-0.0743239216919602	0.14374258856492175	1.8267897128637487	-0.044182935906969374	0.13880399706209906	1.6992075195877416	0.09484668969238716	-0.011350154771097982	1.469451707661139	-0.06148389143347531	-0.06625376056190907	1.2117106686536698	0.00787819111606792	-0.10272083458693212	1.2687414092871596	0.2749015597782812	0.31697988640334995	1.4672877678086818	-0.101396067274793	0.3717568679735252	1.206337948855382	-0.037221454791605435	0.45858097607064285	1.2580251882119993	0.195929535194342
552	11.04	0.13328289865092108	0.9838764868833151	-0.04669370734823876	0.03168697703124305	0.9589301448109047	-0.032796701275627324	0.013565827300467584	0.5149923895585694	-0.06677867166498895	0.0004946579321800081	0.0916073416898046	-0.09404731062789867	0.006750677880270228	0.04254214063751372	0.109988563340516	-0.042436263213894466	0.03943301594813357	0.057888547300241296	0.01194761319135956	0.04540656214267224	-0.12533703376199634	0.2364284876423059	0.9595824965844542	-0.04634902332260812	0.24010781574300402	0.5130594060908796	-0.09913272501131269	0.2451407848822205	0.08852873728550292	-0.11031325230944747	0.2755733298540444	0.04185317483067116	0.0804892498803602	0.31341615449174115	0.03758821858969959	0.024271364894113055	0.23015157920514676	0.04314491980951062	-0.1344995893548687	0.1465131973641049	1.5788414942700544	-0.0704315028823601	0.14599623625297098	1.8229318107665233	-0.03168287145732795	0.14278394389311272	1.6947362229154348	0.08974151626359694	-0.012125633711616438	1.4731930502502621	-0.06861725616517457	-0.06541685228549354	1.1979416758691472	0.011441362534881825	-0.09973127254169084	1.2876360981456374	0.27434681238302444	0.3137457701912235	1.4713261263866857	-0.09936748108429048	0.3712546106955257	1.2071289062376465	-0.026687392812523417	0.4538912524654277	1.2703639162178708	0.1995580333297497
553	11.06	0.13232738884722983	0.9815046956962898	-0.047520679008736376	0.032820467576884206	0.9608834881611382	-0.03646406013908106	0.016425606505921925	0.5192253009207554	-0.06518867263954094	-0.0003402137735654147	0.09452834556579813	-0.09162308287876193	0.015438911512752946	0.0354589645125279	0.08189337812076002	-0.04302903281101074	0.03592529036982575	0.04504575312162296	0.010234589555436546	0.047708282870273115	-0.13283920448477346	0.23887984965012363	0.9604225475502821	-0.05324622698595119	0.2405049547097694	0.5203154034032977	-0.10186715824638615	0.24342799824686812	0.08786582693186976	-0.11596491452452652	0.2735985342375609	0.03616316956358939	0.07431553130929675	0.31565397888013075	0.03555318067945966	0.011402042957959255	0.2312560197261471	0.04261226272436941	-0.15021042947020993	0.14860201062367662	1.5796169730021397	-0.06695169338770939	0.1447915599052447	1.8261974441977167	-0.040400829631378685	0.14526497603435234	1.6996614314630387	0.09663414395293049	-0.010945402000935963	1.4705652684835133	-0.05654534511715727	-0.06943054593974514	1.2059635841794527	0.022399006633666	-0.09485174440097219	1.3040045475466862	0.25792595756854086	0.31519879021160574	1.4688081476212838	-0.10000944846429598	0.37595307078503193	1.208931406722916	-0.02832232681216429	0.44210995349665333	1.297767123115254	0.2090669759747103
554	11.08	0.13165080702746187	0.9794226983913095	-0.0435588908466426	0.03301889327989852	0.9586445685130794	-0.03474095291770196	0.01388278278009519	0.5190750778885489	-0.06388142269713537	0.0017454525140674724	0.09383116768163662	-0.0880781208098141	0.013370054253607102	0.03645891249650014	0.0849427626518053	-0.044349778323719016	0.03836224152665061	0.04481044600317748	0.007638361272978764	0.04697539115273956	-0.1320721873411801	0.2371426512639117	0.9576401967344187	-0.05118737628100108	0.24066227128168377	0.517570111366114	-0.09851190241474497	0.2457153305534722	0.08704465200731845	-0.11249380091547961	0.27233665069821483	0.03690257003145309	0.07444729076544844	0.31140981447996213	0.03773103940211888	0.01861937551135547	0.23469400206310295	0.04177316341591975	-0.150044158901048	0.14780772642463344	1.5792945189687688	-0.06966159021220672	0.14380974847283268	1.8257705430069917	-0.04258702849404086	0.13761243040833	1.697210365743708	0.09370520831450802	-0.00932999333701471	1.4722421999397666	-0.05821769482452327	-0.06935239849082665	1.2092596339601045	0.024078604387884443	-0.08742279813988216	1.324593823617774	0.2559984660619966	0.3160026207959892	1.4689541994566557	-0.09028507569733527	0.37526115304658886	1.2096966165986272	-0.019984083861586253	0.43896520082982005	1.3137179193960422	0.1991993402424696
555	11.1	0.13264502718420287	0.9781714120428324	-0.04732188379354998	0.031156315471212327	0.9603487569255624	-0.038594036356293306	0.016417546789160783	0.5178349708443399	-0.06275535016221138	0.0024300570473536256	0.09448720835091882	-0.0959234670240502	0.01223244913727016	0.035880655681537865	0.09039750901026407	-0.04247530684351362	0.03748158599128539	0.04556190126056475	0.005470290715812728	0.04763781889552425	-0.13476716067248715	0.23615721917168223	0.9582319287972878	-0.05881908540852446	0.23980466519539745	0.517940873028379	-0.10424105780296737	0.24459982435590244	0.08471511563705326	-0.11294688424018572	0.2723185088784757	0.03441250070356783	0.08129013008467842	0.312274625909251	0.03552949478838961	0.020655875127468547	0.2310307855560696	0.040903233700965595	-0.14874268024104953	0.14723558389282418	1.578993406586051	-0.06766614095103136	0.14487654355303764	1.8250903451495601	-0.03807255910495352	0.1412882458091973	1.699307805783459	0.1039826623344164	-0.00866489108273221	1.4733719314385136	-0.05975642562044328	-0.06835650024323946	1.2114603642950683	0.027417883828858913	-0.08357492269629593	1.3448385494483341	0.26381118915048973	0.31341710394435435	1.4700814136200866	-0.09835181070311824	0.37612721722181464	1.2136638418732995	-0.014990584203738139	0.4430435378940677	1.336035035503101	0.21525676394762336
556	11.12	0.1341425717526442	0.9805411547507311	-0.0398292364479596	0.032007952440717614	0.9627740175936644	-0.030488466061435245	0.01318217858674052	0.5123633534521796	-0.06277311323692868	0.0015012430606522753	0.09075926512568433	-0.0898401799945787	0.006226563245702213	0.04117920669022488	0.10470882640776205	-0.044044545975918226	0.038149053465207056	0.05668251879780252	0.012450557157738852	0.04612583166895087	-0.1226426742788935	0.23391998542184061	0.9563758507771124	-0.04666803750250674	0.23998538824520194	0.5139134134630604	-0.09363665345520948	0.24475732370377126	0.08868229920838097	-0.10940506590234537	0.2740243917803748	0.04293855519552913	0.08951381000224047	0.314189804736903	0.03995418401904629	0.02358152465222438	0.23426617976252287	0.04471584410272819	-0.13686561114982587	0.14870758917130295	1.5773066727658611	-0.07141426365479538	0.14569689013260564	1.823116644551407	-0.03234203561643954	0.1444400366172327	1.6930697626290385	0.09741653935262812	-0.01171145831572458	1.4735731423556286	-0.06282020084835135	-0.06490782564390034	1.2101367753978545	0.03853151363341026	-0.08074900973576712	1.3608204080800943	0.2680124294307225	0.31150394880925686	1.4717938679970433	-0.0947779389160483	0.38000387350297443	1.2132817624530288	-0.006647566887610879	0.4326217563883746	1.3408238289459344	0.21652079337963187
